<svg xmlns="http://www.w3.org/2000/svg" width="36.86" height="48" viewBox="0 0 36.86 48">
  <g id="local_florist-24px" transform="translate(0.111)">
    <path id="Path_9" data-name="Path 9" d="M0,0H36.638V48H0Z" fill="none"/>
    <path id="Path_10" data-name="Path 10" d="M21.43,42.857A18.191,18.191,0,0,0,39.86,24.918,18.191,18.191,0,0,0,21.43,42.857ZM8.324,19.437a5.054,5.054,0,0,0,5.119,4.983,5.192,5.192,0,0,0,2.908-.877l-.041.379a5.121,5.121,0,0,0,10.239,0l-.041-.379a5.143,5.143,0,0,0,2.908.877,5.054,5.054,0,0,0,5.119-4.983,4.959,4.959,0,0,0-2.928-4.485,4.959,4.959,0,0,0,2.928-4.485,5.054,5.054,0,0,0-5.119-4.983,5.192,5.192,0,0,0-2.908.877l.041-.379a5.121,5.121,0,0,0-10.239,0l.041.379a5.143,5.143,0,0,0-2.908-.877,5.054,5.054,0,0,0-5.119,4.983,4.959,4.959,0,0,0,2.928,4.485A4.959,4.959,0,0,0,8.324,19.437ZM21.43,9.969a4.985,4.985,0,1,1-5.119,4.983A5.054,5.054,0,0,1,21.43,9.969ZM3,24.918A18.191,18.191,0,0,0,21.43,42.857,18.191,18.191,0,0,0,3,24.918Z" transform="translate(-3.111 2.048)" fill="#fff"/>
  </g>
</svg>
