<svg xmlns="http://www.w3.org/2000/svg" width="58" height="56" viewBox="0 0 58 56">
  <g id="psychology-24px" transform="translate(0.31 -0.457)">
    <g id="Group_3" data-name="Group 3" transform="translate(-0.31 0.384)">
      <rect id="Rectangle_10" data-name="Rectangle 10" width="58" height="56" transform="translate(0 0.073)" fill="none"/>
    </g>
    <g id="Group_5" data-name="Group 5" transform="translate(9.759 7.715)">
      <g id="Group_4" data-name="Group 4">
        <path id="Path_7" data-name="Path 7" d="M14.971,8.57a3.4,3.4,0,1,0,3.4,3.4A3.4,3.4,0,0,0,14.971,8.57Z" transform="translate(6.437 4.235)" fill="#fff"/>
        <path id="Path_8" data-name="Path 8" d="M25.406,3a16.4,16.4,0,0,0-16.6,15.349L4.24,24.266a1.153,1.153,0,0,0,.951,1.849H8.759V33.05a4.7,4.7,0,0,0,4.756,4.623h2.378v6.935H32.541V33.79a16.153,16.153,0,0,0,9.513-14.609A16.407,16.407,0,0,0,25.406,3Zm7.135,16.181c0,.3-.024.6-.048.9l1.974,1.526a.426.426,0,0,1,.119.578l-1.9,3.213a.485.485,0,0,1-.571.208l-2.354-.925a7.2,7.2,0,0,1-1.593.9l-.381,2.45a.462.462,0,0,1-.476.393H23.5a.48.48,0,0,1-.476-.393l-.357-2.45a6.854,6.854,0,0,1-1.617-.9l-2.354.925a.506.506,0,0,1-.595-.208l-1.9-3.213a.43.43,0,0,1,.119-.578l2-1.526c-.024-.3-.048-.6-.048-.9a5.517,5.517,0,0,1,.1-.9l-2.021-1.526a.449.449,0,0,1-.119-.6l1.9-3.19a.475.475,0,0,1,.571-.208l2.378.925a7.6,7.6,0,0,1,1.593-.9l.357-2.45a.48.48,0,0,1,.476-.393h3.805a.48.48,0,0,1,.476.393l.357,2.45a7.2,7.2,0,0,1,1.593.9l2.378-.925a.465.465,0,0,1,.571.208l1.9,3.19a.454.454,0,0,1-.119.6l-2.021,1.526A3.624,3.624,0,0,1,32.541,19.181Z" transform="translate(-3.998 -3)" fill="#fff"/>
      </g>
    </g>
  </g>
</svg>
