<svg xmlns="http://www.w3.org/2000/svg" width="24" height="24" viewBox="0 0 24 24">
  <g id="published_with_changes-24px" transform="translate(0 -0.002)">
    <rect id="Rectangle_13" data-name="Rectangle 13" width="24" height="24" transform="translate(0 0.002)" fill="none"/>
    <path id="Path_28" data-name="Path 28" d="M18.6,19.5H21v2H15v-6h2v2.73A7.984,7.984,0,0,0,13,4.07V2.05A9.991,9.991,0,0,1,18.6,19.5ZM4,12A7.951,7.951,0,0,1,7,5.77V8.5H9v-6H3v2H5.4A9.991,9.991,0,0,0,11,21.95V19.93A8,8,0,0,1,4,12ZM16.24,8.11l-5.66,5.66L7.75,10.94,6.34,12.35l4.24,4.24,7.07-7.07Z" transform="translate(0 2)" fill="#fff"/>
  </g>
</svg>
