<svg id="sentiment_dissatisfied-24px" xmlns="http://www.w3.org/2000/svg" width="24" height="24" viewBox="0 0 24 24">
  <path id="Path_18" data-name="Path 18" d="M0,0H24V24H0Z" fill="none"/>
  <circle id="Ellipse_2" data-name="Ellipse 2" cx="1.5" cy="1.5" r="1.5" transform="translate(14 8)" fill="#fff"/>
  <circle id="Ellipse_3" data-name="Ellipse 3" cx="1.5" cy="1.5" r="1.5" transform="translate(7 8)" fill="#fff"/>
  <path id="Path_19" data-name="Path 19" d="M11.99,2A10,10,0,1,0,22,12,10,10,0,0,0,11.99,2ZM12,20a8,8,0,1,1,8-8A8,8,0,0,1,12,20Zm0-3.5a3.844,3.844,0,0,1,1.97.53c.12-.14.86-.98,1.01-1.14A5.389,5.389,0,0,0,12,15a5.523,5.523,0,0,0-2.99.88c.97,1.09.01.02,1.01,1.14A4,4,0,0,1,12,16.5Z" fill="#fff"/>
</svg>
